<svg width="100" height="100" viewBox="0 0 100 100" fill="none" xmlns="http://www.w3.org/2000/svg">
<circle cx="50.5" cy="50.5" r="49.5" fill="#303F9F"/>
<path d="M20.4711 35.544C20.6311 35.448 20.8711 35.4 21.1911 35.4H25.7991C25.9591 35.4 26.0871 35.464 26.1831 35.592C26.3111 35.688 26.3751 35.816 26.3751 35.976V68.424C26.3751 68.584 26.3111 68.728 26.1831 68.856C26.0871 68.952 25.9591 69 25.7991 69H21.3831C21.2231 69 21.0791 68.952 20.9511 68.856C20.8551 68.728 20.8071 68.584 20.8071 68.424V41.208C20.8071 41.144 20.7751 41.08 20.7111 41.016C20.6471 40.952 20.5831 40.936 20.5191 40.968L16.1511 42.168L15.9591 42.216C15.6391 42.216 15.4791 42.04 15.4791 41.688L15.3351 38.472C15.3351 38.152 15.4631 37.928 15.7191 37.8L20.4711 35.544ZM48.1899 69C47.8379 69 47.6139 68.84 47.5179 68.52L42.3339 54.744C42.2699 54.616 42.1899 54.552 42.0939 54.552H37.9659C37.8059 54.552 37.7259 54.632 37.7259 54.792V68.424C37.7259 68.584 37.6619 68.728 37.5339 68.856C37.4379 68.952 37.3099 69 37.1499 69H32.7339C32.5739 69 32.4299 68.952 32.3019 68.856C32.2059 68.728 32.1579 68.584 32.1579 68.424V35.976C32.1579 35.816 32.2059 35.688 32.3019 35.592C32.4299 35.464 32.5739 35.4 32.7339 35.4H43.8219C45.6459 35.4 47.2619 35.816 48.6699 36.648C50.0779 37.448 51.1659 38.6 51.9339 40.104C52.7019 41.576 53.0859 43.272 53.0859 45.192C53.0859 47.272 52.6059 49.08 51.6459 50.616C50.6859 52.152 49.3739 53.24 47.7099 53.88C47.5499 53.944 47.5019 54.056 47.5659 54.216L53.2299 68.328C53.2619 68.392 53.2779 68.488 53.2779 68.616C53.2779 68.872 53.1179 69 52.7979 69H48.1899ZM37.9659 40.2C37.8059 40.2 37.7259 40.28 37.7259 40.44V49.992C37.7259 50.152 37.8059 50.232 37.9659 50.232H43.0059C44.3499 50.232 45.4379 49.784 46.2699 48.888C47.1019 47.96 47.5179 46.744 47.5179 45.24C47.5179 43.704 47.1019 42.488 46.2699 41.592C45.4379 40.664 44.3499 40.2 43.0059 40.2H37.9659ZM76.2752 35.784C76.4032 35.528 76.6272 35.4 76.9472 35.4H81.4112C81.5712 35.4 81.6992 35.464 81.7952 35.592C81.9232 35.688 81.9872 35.816 81.9872 35.976V68.424C81.9872 68.584 81.9232 68.728 81.7952 68.856C81.6992 68.952 81.5712 69 81.4112 69H76.9952C76.8352 69 76.6912 68.952 76.5632 68.856C76.4672 68.728 76.4192 68.584 76.4192 68.424V45.672C76.4192 45.544 76.3872 45.48 76.3232 45.48C76.2592 45.448 76.1952 45.48 76.1312 45.576L71.0432 53.976C70.9152 54.232 70.6912 54.36 70.3712 54.36H69.4592C69.1392 54.36 68.9152 54.232 68.7872 53.976L63.6992 45.624C63.6352 45.528 63.5712 45.496 63.5072 45.528C63.4432 45.528 63.4112 45.592 63.4112 45.72V68.424C63.4112 68.584 63.3472 68.728 63.2192 68.856C63.1232 68.952 62.9952 69 62.8352 69H58.4192C58.2592 69 58.1152 68.952 57.9872 68.856C57.8912 68.728 57.8432 68.584 57.8432 68.424V35.976C57.8432 35.816 57.8912 35.688 57.9872 35.592C58.1152 35.464 58.2592 35.4 58.4192 35.4H62.8352C63.1552 35.4 63.3792 35.528 63.5072 35.784L69.7952 45.816C69.8912 46.008 69.9872 46.008 70.0832 45.816L76.2752 35.784Z" fill="white"/>
</svg>
